<svg xmlns="http://www.w3.org/2000/svg" width="24" height="21" viewBox="0 0 24 21">
    <g fill="none" fill-rule="evenodd">
        <path d="M0-2h24v24H0z"/>
        <path fill="#ffffff" d="M10.728 21a.945.945 0 0 1-.159-.013c-4.206-.712-7.259-4.39-7.259-8.745 0-2.763 1.23-5.32 3.373-7.013A8.5 8.5 0 0 1 12 3.377c3.75 0 7.066 2.438 8.248 6.067a.987.987 0 0 1-.61 1.242.96.96 0 0 1-1.218-.622c-.92-2.825-3.5-4.722-6.42-4.722a6.612 6.612 0 0 0-4.137 1.441 6.909 6.909 0 0 0-2.626 5.459c0 3.39 2.375 6.252 5.647 6.805a.98.98 0 0 1 .793 1.131.97.97 0 0 1-.949.822"/>
        <path fill="#ffffff" d="M12 17.73c-2.967 0-5.38-2.462-5.38-5.488 0-1.711.761-3.294 2.088-4.342a.95.95 0 0 1 1.352.175.996.996 0 0 1-.172 1.379 3.528 3.528 0 0 0-1.341 2.788c0 1.942 1.549 3.522 3.453 3.522 1.465 0 2.775-.946 3.26-2.355a.959.959 0 0 1 1.228-.602c.502.18.766.74.59 1.253-.756 2.195-2.796 3.67-5.078 3.67"/>
        <path fill="#ffffff" d="M24 12.242C24 5.492 18.617 0 12 0 7.347 0 3.072 2.783 1.111 7.09A12.345 12.345 0 0 0 0 12.242c0 .542.431.982.963.982.533 0 .964-.44.964-.982 0-1.51.313-2.966.932-4.324C4.505 4.302 8.093 1.965 12 1.965c5.554 0 10.073 4.61 10.073 10.277 0 1.267-.229 2.514-.668 3.683-1.17.013-2.115.984-2.115 2.18 0 1.205.958 2.182 2.139 2.182 1.18 0 2.138-.977 2.138-2.182 0-.49-.16-.942-.428-1.306A12.46 12.46 0 0 0 24 12.242"/>
    </g>
</svg>
